<?xml version="1.0" standalone="no"?>
<!DOCTYPE svg PUBLIC "-//W3C//DTD SVG 20010904//EN"
 "http://www.w3.org/TR/2001/REC-SVG-20010904/DTD/svg10.dtd">
<svg version="1.0" xmlns="http://www.w3.org/2000/svg"
 width="500.000000pt" height="353.000000pt" viewBox="0 0 500.000000 353.000000"
 preserveAspectRatio="xMidYMid meet">
<metadata>
Created by potrace 1.15, written by Peter Selinger 2001-2017
</metadata>
<g transform="translate(0.000000,353.000000) scale(0.100000,-0.100000)"
fill="#000000" stroke="none">
<path d="M0 1765 l0 -1765 2500 0 2500 0 0 1765 0 1765 -2500 0 -2500 0 0
-1765z m4979 1741 c8 -10 10 -475 9 -1752 l-3 -1739 -2474 -3 c-1820 -1 -2477
1 -2487 9 -12 10 -14 299 -14 1749 0 955 3 1740 7 1743 3 4 1119 7 2478 7
2069 0 2474 -2 2484 -14z"/>
<path d="M2285 2964 c-349 -77 -607 -345 -660 -686 -4 -28 -11 -38 -24 -38
-25 0 -68 -35 -86 -70 -23 -44 -18 -122 11 -207 20 -57 24 -86 20 -121 -3 -26
-8 -87 -12 -137 -5 -79 -3 -94 15 -123 35 -55 75 -73 159 -71 40 1 75 -1 78
-4 3 -3 14 -69 24 -147 10 -78 21 -144 24 -147 3 -3 16 -11 28 -18 13 -6 21
-18 19 -26 -3 -8 -6 -52 -9 -97 -6 -122 8 -163 75 -218 52 -42 58 -44 117 -44
51 0 66 -4 82 -21 19 -21 19 -22 -3 -36 -13 -9 -23 -23 -23 -32 0 -9 -7 -25
-15 -35 -44 -59 6 -96 151 -115 161 -20 337 -10 459 25 81 23 125 112 74 148
l-21 15 21 29 c19 28 26 30 93 34 151 8 192 60 124 159 -20 28 -36 55 -36 59
0 5 11 51 25 102 41 154 29 235 -51 328 -49 58 -47 67 16 69 14 1 60 16 102
35 71 31 78 32 83 15 3 -10 22 -32 41 -48 31 -28 41 -31 101 -31 85 0 141 30
167 89 19 40 19 103 0 253 -4 35 0 64 20 121 36 103 35 174 -1 218 -15 17 -42
38 -59 45 -41 17 -40 16 -59 106 -31 151 -93 264 -206 378 -118 117 -231 186
-379 230 -100 30 -377 38 -485 14z m60 -158 c81 -13 160 -16 301 -14 l191 2
51 -42 c66 -55 161 -165 195 -224 74 -128 124 -330 112 -443 -19 -168 -90
-298 -216 -397 -32 -26 -156 -71 -225 -82 l-30 -5 0 63 c1 60 2 62 25 58 21
-4 23 -2 18 17 -4 18 -1 21 24 21 37 0 47 23 25 60 -9 16 -16 35 -16 44 0 9
-8 16 -20 16 -11 0 -20 -7 -20 -15 0 -9 -6 -12 -15 -9 -8 4 -15 18 -15 34 0
16 -7 35 -15 44 -17 17 -20 36 -5 36 6 0 10 7 10 15 0 10 -10 15 -28 15 -21 0
-32 -7 -43 -27 -19 -37 -28 -43 -60 -36 -15 3 -29 1 -32 -4 -6 -9 -19 -9 -113
1 -67 7 -84 14 -84 37 0 14 7 19 25 19 16 0 25 6 25 15 0 11 -11 15 -38 15
-47 0 -62 -25 -62 -104 0 -63 -19 -79 -55 -46 -29 27 -53 25 -61 -5 -3 -14
-12 -25 -20 -25 -15 0 -29 -43 -19 -59 3 -6 15 -11 25 -11 37 0 50 -12 50 -45
0 -30 3 -34 31 -37 18 -2 35 -10 39 -18 4 -8 12 -25 18 -37 16 -30 15 -32 -9
-26 -12 3 -24 0 -29 -6 -6 -10 -12 -10 -29 1 -18 11 -23 11 -30 -1 -6 -9 -15
-11 -27 -6 -11 5 -39 9 -64 11 -83 4 -111 14 -122 45 -10 29 -31 38 -43 19 -9
-15 -25 -12 -25 4 0 7 -14 16 -32 20 -49 10 -78 42 -71 78 5 27 3 29 -17 26
-26 -3 -39 17 -15 25 8 4 15 2 15 -3 0 -6 7 -10 15 -10 16 0 19 18 6 38 -9 15
-61 6 -61 -10 0 -6 -6 -5 -15 2 -17 14 -21 70 -5 70 25 0 7 29 -22 36 -18 4
-27 9 -20 11 6 3 12 18 12 34 0 22 -5 29 -19 29 -22 0 -32 37 -24 87 3 19 0
39 -6 47 -9 11 -9 25 -1 56 6 23 9 49 6 56 -3 8 2 32 10 54 12 30 22 40 39 40
29 0 37 30 24 89 -8 36 -7 47 5 60 14 13 17 12 34 -7 22 -25 42 -29 42 -7 0 8
-3 15 -8 15 -4 0 -7 23 -6 51 2 41 7 57 27 75 17 16 28 19 35 12 18 -18 45 -1
39 24 -9 33 10 61 38 54 29 -7 55 2 55 19 0 8 8 11 20 8 11 -3 20 -9 20 -14 0
-5 7 -9 15 -9 19 0 19 17 0 37 -9 8 -15 23 -13 32 6 31 108 34 283 7z m-417
-1214 c34 -16 88 -35 121 -42 61 -13 74 -23 46 -34 -8 -3 -20 -17 -25 -31 -14
-36 -45 -32 -91 15 -32 32 -49 41 -89 46 -28 4 -50 10 -50 15 0 9 22 59 26 59
1 0 29 -13 62 -28z m423 -184 c17 3 79 -66 79 -87 0 -12 59 -15 76 -3 6 4 14
19 18 35 4 18 13 27 26 27 11 0 20 4 20 9 0 12 106 35 119 26 18 -10 0 -35
-25 -35 -15 0 -24 -6 -24 -15 0 -8 7 -15 15 -15 8 0 15 -4 15 -10 0 -16 -44
-51 -58 -45 -7 3 -25 2 -39 -1 -25 -7 -26 -18 -7 -68 5 -14 -4 -15 -62 -14
-38 2 -86 -1 -106 -5 -26 -5 -38 -4 -38 3 0 7 6 10 13 7 11 -4 37 42 37 67 0
8 -17 12 -47 12 -66 -1 -83 8 -83 42 0 26 3 29 25 24 20 -3 25 0 25 17 0 12
-6 21 -16 21 -8 0 -12 5 -9 10 4 6 12 7 18 3 7 -4 19 -6 28 -5z m187 -279 c57
-14 82 -33 64 -51 -7 -7 -12 -32 -12 -56 0 -30 -4 -42 -12 -39 -8 2 -12 16
-10 35 3 28 1 31 -30 36 -49 7 -79 7 -115 1 -27 -5 -33 -11 -33 -30 0 -14 5
-25 12 -25 9 0 9 -3 1 -11 -8 -8 -23 -6 -54 5 -24 8 -38 15 -31 16 17 0 15 30
-3 30 -8 0 -15 -8 -16 -17 0 -14 -2 -15 -6 -3 -4 8 -13 20 -21 26 -13 9 -12
12 7 17 11 3 21 1 21 -4 0 -5 7 -9 16 -9 12 0 15 6 10 24 -8 32 9 44 75 55 76
12 85 12 137 0z"/>
<path d="M2390 2564 c0 -7 4 -15 10 -19 6 -3 5 -15 -2 -30 -15 -32 -9 -37 49
-40 26 -2 57 -7 67 -11 13 -5 21 -3 24 4 2 7 10 12 18 12 8 0 14 7 14 15 0 9
-9 15 -24 15 -19 0 -23 4 -19 20 3 11 9 20 14 20 5 0 9 7 9 15 0 8 -7 15 -15
15 -8 0 -15 -6 -15 -12 0 -10 -2 -10 -8 -1 -11 17 -122 14 -122 -3z"/>
<path d="M2725 2480 c-4 -12 -1 -27 5 -35 9 -11 9 -15 1 -15 -6 0 -11 -6 -11
-13 0 -11 23 -13 103 -12 134 2 145 6 145 51 0 32 -2 35 -23 30 -13 -3 -25 -1
-27 5 -2 7 -22 7 -63 1 -36 -6 -67 -6 -77 -1 -27 15 -46 10 -53 -11z"/>
<path d="M1996 2454 c-4 -20 -6 -37 -4 -39 5 -5 107 -9 156 -7 30 1 42 6 42
17 0 8 5 15 10 15 6 0 10 6 10 13 0 21 -51 35 -131 37 l-77 1 -6 -37z"/>
<path d="M2966 2253 c-4 -4 -23 -6 -43 -5 -19 2 -51 -2 -70 -9 -28 -9 -40 -8
-60 2 -20 11 -26 11 -33 -1 -7 -10 -10 -11 -10 -2 0 6 -9 12 -20 12 -16 0 -20
-7 -20 -35 0 -33 -2 -35 -34 -35 -29 0 -34 -4 -40 -31 -9 -45 7 -67 48 -67 26
0 36 6 45 24 12 26 41 33 41 9 0 -8 9 -15 20 -15 13 0 20 7 20 20 0 33 30 37
54 8 27 -32 49 -41 110 -44 55 -3 76 11 76 50 0 21 5 26 25 26 16 0 25 6 25
15 0 8 -8 15 -19 15 -10 0 -24 7 -31 15 -18 21 -40 19 -40 -5 0 -25 -12 -25
-34 -1 -17 18 -16 20 3 26 12 3 21 13 21 21 0 15 -21 19 -34 7z"/>
<path d="M2002 2243 c-20 -4 -22 -9 -17 -34 5 -24 4 -28 -9 -23 -9 3 -16 12
-16 20 0 20 -27 17 -52 -5 l-21 -20 24 -50 c23 -49 25 -50 59 -45 77 12 90 16
90 29 0 16 55 39 75 31 8 -3 15 -15 15 -26 0 -25 37 -28 43 -2 3 12 5 13 6 2
1 -19 56 -44 73 -33 7 4 21 6 31 5 14 -3 17 4 17 42 0 44 -1 46 -30 46 -32 0
-50 22 -43 51 4 14 0 19 -16 19 -11 0 -21 -5 -21 -11 0 -8 -18 -9 -57 -5 -104
12 -128 13 -151 9z"/>
<path d="M1950 2001 c0 -5 -14 -12 -30 -16 -17 -4 -38 -17 -46 -30 -18 -28
-15 -75 6 -85 8 -4 26 -12 39 -19 36 -19 136 -5 167 24 52 48 20 109 -65 125
-66 12 -71 12 -71 1z"/>
<path d="M2893 1970 c-19 -8 -23 -17 -23 -54 0 -62 25 -76 130 -76 62 0 80 3
80 14 0 8 7 16 15 20 23 9 20 83 -4 96 -24 12 -167 12 -198 0z"/>
</g>
</svg>
