<?xml version="1.0" standalone="no"?>
<!DOCTYPE svg PUBLIC "-//W3C//DTD SVG 20010904//EN"
 "http://www.w3.org/TR/2001/REC-SVG-20010904/DTD/svg10.dtd">
<svg version="1.0" xmlns="http://www.w3.org/2000/svg"
 width="512.000000pt" height="512.000000pt" viewBox="0 0 512.000000 512.000000"
 preserveAspectRatio="xMidYMid meet">
<metadata>
Created by potrace 1.15, written by Peter Selinger 2001-2017
</metadata>
<g transform="translate(0.000000,512.000000) scale(0.100000,-0.100000)"
fill="#000000" stroke="none">
<path d="M2960 4461 c-290 -60 -501 -177 -698 -387 l-91 -97 -70 11 c-97 16
-282 15 -382 -3 -443 -77 -799 -422 -900 -870 -6 -27 -14 -101 -17 -164 l-7
-114 -52 -18 c-317 -107 -587 -384 -692 -708 -70 -215 -69 -498 3 -707 133
-391 466 -679 865 -749 128 -23 3015 -22 3144 0 527 93 949 515 1042 1042 19
114 19 332 0 446 -54 305 -226 593 -469 781 -44 35 -99 73 -121 86 l-40 23 3
146 c2 100 -2 175 -13 238 -90 529 -513 955 -1042 1047 -120 22 -351 20 -463
-3z m503 -345 c315 -94 557 -335 653 -651 26 -84 28 -102 28 -265 0 -154 -3
-183 -23 -245 -37 -113 -38 -111 54 -148 323 -131 534 -379 600 -706 26 -125
17 -325 -19 -446 -49 -163 -142 -313 -268 -430 -166 -156 -352 -236 -598 -256
-81 -7 -612 -9 -1500 -7 -1547 5 -1427 -2 -1605 82 -218 103 -388 313 -439
543 -21 92 -21 254 0 346 51 230 221 440 439 543 111 52 207 74 323 74 l90 0
-31 88 c-40 113 -49 286 -22 409 51 235 219 445 440 549 113 53 207 74 329 74
120 0 215 -20 318 -67 68 -31 83 -35 90 -23 5 8 30 52 56 98 85 149 231 288
387 369 160 82 262 104 460 99 127 -3 164 -8 238 -30z"/>
<path d="M2240 2880 l0 -320 -320 0 -320 0 0 -320 0 -320 320 0 320 0 0 -320
0 -320 320 0 320 0 0 320 0 320 320 0 320 0 0 320 0 320 -320 0 -320 0 0 320
0 320 -320 0 -320 0 0 -320z"/>
</g>
</svg>
